<?xml version="1.0" encoding="utf-8"?><svg version="1.1" id="Layer_1" xmlns="http://www.w3.org/2000/svg" xmlns:xlink="http://www.w3.org/1999/xlink" x="0px" y="0px" viewBox="0 0 101.17 122.88" style="enable-background:new 0 0 101.17 122.88" xml:space="preserve"><g><path d="M71.79,82.29c0.48,0.21,0.84,0.59,1.02,1.04c0.18,0.45,0.19,0.97-0.01,1.45c-0.21,0.48-0.59,0.84-1.04,1.02 c-0.45,0.18-0.97,0.19-1.45-0.01c-2.79-1.19-5.11-3.03-7.06-5.41c-1.92-2.35-3.46-5.23-4.68-8.54c-2.87-1.77-5.66-3.1-8.37-3.99 c-2.73-0.9-5.38-1.37-7.95-1.39c-2.44-0.03-4.82,0.33-7.15,1.08c-2.23,0.72-4.41,1.79-6.54,3.21c1.22,1.09,2.34,2.3,3.35,3.63 c1.08,1.42,2.03,2.98,2.86,4.68c0.23,0.47,0.25,0.99,0.09,1.45l-0.01,0.02c-0.16,0.45-0.49,0.84-0.96,1.07 c-0.47,0.23-0.99,0.25-1.45,0.09l-0.02-0.01c-0.45-0.16-0.84-0.49-1.07-0.96c-1.2-2.46-2.7-4.58-4.49-6.35 c-1.79-1.78-3.87-3.22-6.23-4.34c-2.42-1.15-5.14-1.97-8.14-2.48c-3.01-0.51-6.3-0.71-9.87-0.61c-0.52,0.01-1-0.19-1.36-0.52 c-0.35-0.33-0.58-0.8-0.59-1.33c-0.01-0.52,0.19-1,0.52-1.36c0.33-0.35,0.8-0.58,1.33-0.59c3.86-0.11,7.44,0.11,10.73,0.68 c3.3,0.57,6.3,1.49,9,2.77c0.58,0.27,1.14,0.56,1.68,0.87c0.5,0.28,0.98,0.57,1.45,0.87c2.63-1.9,5.34-3.32,8.13-4.27 c2.84-0.97,5.76-1.43,8.77-1.4c2.44,0.03,4.93,0.39,7.46,1.09c2.37,0.65,4.77,1.6,7.22,2.84c-0.07-0.3-0.15-0.59-0.22-0.89 c-0.11-0.48-0.22-0.97-0.33-1.48c-1.01-4.76-1.62-10.1-1.97-15.82c-0.34-5.6-0.43-11.58-0.38-17.75 c-4.65,1.58-9.25,3.15-13.92,4.67c-1.65,0.74-3.17,1.11-4.57,1.12c-1.41,0.02-2.7-0.32-3.87-0.97c-1.11-0.61-2.08-1.5-2.93-2.62 c-0.84-1.11-1.57-2.45-2.19-3.98c-1.36-2.19-2.76-4.38-4.08-6.58c-1.07-1.79-1.68-3.5-1.83-5.14c-0.14-1.65,0.19-3.22,1-4.71 c0.75-1.39,1.91-2.66,3.5-3.83c1.57-1.15,3.54-2.2,5.93-3.14c4.47-1.53,9.2-3.12,13.71-4.49c1.69-0.61,3.33-0.94,4.91-0.98 c1.59-0.04,3.12,0.21,4.59,0.77c1.41,0.54,2.75,1.35,4.01,2.45c1.24,1.09,2.4,2.46,3.48,4.12c5.74,3.66,10.7,8.2,14.96,13.54 c4.26,5.35,7.81,11.49,10.73,18.33c2.91,6.81,5.2,14.32,6.94,22.42c1.74,8.09,2.94,16.78,3.68,25.97c1.3,3.74,2.26,7.12,2.73,10.13 c0.48,3.04,0.46,5.69-0.19,7.93c-0.7,2.45-2.08,4.38-4.26,5.76c-2.16,1.36-5.11,2.17-8.99,2.39c-9.54,2.43-18.54,4.4-26.96,5.87 c-8.43,1.48-16.27,2.46-23.49,2.91c-7.3,0.45-13.96,0.35-19.94-0.33c-5.98-0.69-11.28-1.97-15.85-3.88 c-0.48-0.2-0.84-0.58-1.03-1.03c-0.19-0.45-0.2-0.97,0-1.45c0.2-0.48,0.58-0.84,1.03-1.03c0.45-0.19,0.97-0.2,1.45,0 c4.28,1.79,9.29,2.99,14.99,3.64c5.7,0.64,12.09,0.73,19.11,0.3c7.09-0.44,14.82-1.41,23.16-2.88c8.33-1.46,17.26-3.42,26.74-5.84 c0.02,0,0.03-0.01,0.05-0.01c0.05-0.01,0.09-0.02,0.14-0.03c2.67-0.4,4.62-0.22,7.14-1.65c1.6-0.91,2.58-2.18,3.04-3.79 c0.52-1.8,0.49-4.05,0.04-6.71c-0.46-2.67-1.35-5.75-2.55-9.18c-0.04-0.09-0.07-0.19-0.1-0.29c-0.02-0.1-0.04-0.2-0.05-0.31 c-0.72-9.06-1.89-17.6-3.59-25.54c-1.7-7.94-3.92-15.27-6.75-21.89c-2.8-6.56-6.2-12.43-10.27-17.53 c-4.07-5.09-8.8-9.4-14.28-12.84c-0.12-0.07-0.24-0.17-0.34-0.27c-0.1-0.1-0.19-0.22-0.27-0.34l-0.01-0.02 c-0.88-1.41-1.82-2.56-2.79-3.45c-0.97-0.89-1.99-1.53-3.05-1.93c-1.03-0.39-2.11-0.56-3.26-0.52c-1.15,0.04-2.36,0.29-3.63,0.75 c-4.54,1.51-9.1,2.98-13.64,4.47c-1.96,0.77-3.56,1.6-4.8,2.47c-1.23,0.87-2.1,1.78-2.62,2.73c-0.46,0.85-0.63,1.78-0.51,2.78 c0.12,1.02,0.54,2.13,1.26,3.32l4.12,6.65c0.01,0.01,0.02,0.03,0.02,0.04l0.07,0.12c0.03,0.05,0.05,0.1,0.06,0.14l0.01,0.02 c0.47,1.19,0.99,2.2,1.58,3.02c0.58,0.81,1.21,1.42,1.91,1.81c0.64,0.35,1.36,0.52,2.19,0.48c0.85-0.04,1.8-0.29,2.88-0.77 c0.04-0.02,0.09-0.04,0.14-0.06c0.05-0.02,0.1-0.04,0.15-0.06l1.73-0.56c0.45-1.85,0.88-3.37,1.23-4.6l0.01-0.02 c0.29-1.02,0.55-1.74,0.72-2.21c0.11-0.31,0.25-0.35,0.21-0.41c-0.03-0.04-0.14,0.16-0.49,0.4c-0.65,0.46-1.74,1.22-3.62,1.98 l-0.88,0.35c-0.49,0.2-1.01,0.17-1.45-0.02c-0.45-0.19-0.82-0.55-1.02-1.04l0,0c-0.19-0.49-0.17-1,0.02-1.45 c0.19-0.45,0.55-0.82,1.04-1.02c0.29-0.12,0.59-0.23,0.88-0.35c5.13-2.07,7.34-2.95,8.67-0.97c0.85,1.26,0.38,2.9-0.43,5.77 l-0.01,0.04c-0.18,0.63-0.38,1.34-0.59,2.12l10.46-3.56l0.04-0.01c0.09-0.03,0.18-0.05,0.27-0.06c0.1-0.02,0.21-0.02,0.32-0.02 c0.52,0.01,1,0.22,1.34,0.57c0.34,0.35,0.55,0.82,0.54,1.35c-0.09,6.61-0.04,13.02,0.28,19.01c0.32,5.98,0.93,11.53,1.96,16.42 c0.99,4.69,2.37,8.75,4.28,11.97C66.3,78.61,68.72,80.97,71.79,82.29L71.79,82.29z"/></g></svg>